{"title":"Sondhye Namar Aage (2014) - qHDDVDRip - x264 - AC3 - SAP [DDR]","uid":12969980,"size":2275313983,"categoryP":"video","categoryS":"movies","magnet":"?xt=urn:btih:b12a326944f83ff102d4ed36813ce9da0d6c5f52&amp;dn=Sondhye+Namar+Aage+%282014%29+-+qHDDVDRip+-+x264+-+AC3+-+SAP+%5BDDR%5D&amp;tr=udp%3A%2F%2Ftracker.leechers-paradise.org%3A6969&amp;tr=udp%3A%2F%2Fzer0day.ch%3A1337&amp;tr=udp%3A%2F%2Fopen.demonii.com%3A1337&amp;tr=udp%3A%2F%2Ftracker.coppersurfer.tk%3A6969&amp;tr=udp%3A%2F%2Fexodus.desync.com%3A6969","seeders":0,"leechers":1,"uploader":"SaM","files":19,"time":1449934514,"description":"( A film by Ritabrata Bhattacharya, Suspense Thriller Movie )\r\n\r\n\r\n\r\n\r\nUpscaled DVD Rip - qHD - x264 - SAP\r\n\r\n2.1 AC3 - No Sub - MP4 - 2.07 GB\r\n\r\n*2014*\r\n\r\n(Compatible with XBOX 360, PlayStation 3, HDTV, &amp; Smartphones)\r\n\r\n! || |= ®\r\n\r\n\r\nFormat : MPEG-4\r\nFormat profile : Base Media\r\nCodec ID : isom\r\nFile size : 2.08 GiB\r\nDuration : 2h 8mn\r\nOverall bit rate mode : Variable\r\nOverall bit rate : 2 312 Kbps\r\nEncoded date : UTC 2015-12-11 15:14:20\r\nTagged date : UTC 2015-12-11 15:14:20\r\n\r\nVideo\r\nID : 1\r\nFormat : AVC\r\nFormat/Info : Advanced Video Codec\r\nFormat profile :   \r\nFormat settings, CABAC : Yes\r\nFormat settings, ReFrames : 3 frames\r\nCodec ID : avc1\r\nCodec ID/Info : Advanced Video Coding\r\nDuration : 2h 8mn\r\nBit rate mode : Variable\r\nBit rate : 2 053 Kbps\r\nMaximum bit rate : 24.0 Mbps\r\nWidth : 960 pixels\r\nHeight : 432 pixels\r\nDisplay aspect ratio : 2.222\r\nFrame rate mode : Constant\r\nFrame rate : 25.000 fps\r\nColor space : YUV\r\nChroma subsampling : 4:2:0\r\nBit depth : 8 bits\r\nScan type : Progressive\r\nBits/(Pixel*Frame) : 0.198\r\nStream size : 1.85 GiB (89%)\r\nTitle : Sondhye Namar Aage (2014) - qHD - DVD Rip - x264 - AC3 - SAP [DDR]\r\nEncoded date : UTC 2015-12-11 14:01:12\r\nTagged date : UTC 2015-12-11 15:16:25\r\n\r\nAudio\r\nID : 2\r\nFormat : AC-3\r\nFormat/Info : Audio Coding 3\r\nMode extension : CM (complete main)\r\nFormat settings, Endianness : Big\r\nCodec ID : ac-3\r\nDuration : 2h 8mn\r\nBit rate mode : Constant\r\nBit rate : 256 Kbps\r\nMaximum bit rate : 270 Kbps\r\nChannel(s) : 2 channels\r\nChannel positions : Front: L R\r\nSampling rate : 48.0 KHz\r\nBit depth : 16 bits\r\nCompression mode : Lossy\r\nStream size : 236 MiB (11%)\r\nTitle : 2.1 AC3 [DDR]\r\nLanguage : English\r\nEncoded date : UTC 2015-12-11 15:15:49\r\nTagged date : UTC 2015-12-11 15:16:25\r\n\r\n \nhttp://extraimago.com/image/PVr \nhttp://extraimago.com/image/PVp \nhttp://extraimago.com/image/PVY \nhttp://extraimago.com/image/PVC \nhttp://extraimago.com/image/PVB \nhttp://extraimago.com/image/PV4 \nhttp://extraimago.com/image/PVe \nhttp://extraimago.com/image/PVZ \nhttp://extraimago.com/image/PVK \nhttp://extraimago.com/image/PVJ \nhttp://extraimago.com/image/PV0 \nhttp://extraimago.com/image/PVz \nhttp://extraimago.com/image/PVU \nhttp://extraimago.com/image/PVM \nhttp://extraimago.com/image/PV9\r\n\r\nMake sure it is Genuine DDR release @ ExtraTorrent.com\r\n     \nhttp://extratorrent.cc/     \nhttp://extratorrent.com/     \nhttp://extratorrent.ws/     \nhttp://etproxy.com/     \nhttp://extratorrentlive.com/     \nhttp://extratorrentonline.com/     \nhttp://etmirror.com/     \nhttp://extratorrent.works/\r\n\r\nShare your Images with:\r\n     \nhttp://extraimago.com/\r\n\r\nHelp us by donating with Bitcoin: 1XeH1kKXWYbzZcFHokGiZ4d3MWW5WyXzU","torrent":{"xt":"urn:btih:b12a326944f83ff102d4ed36813ce9da0d6c5f52","amp;dn":"Sondhye+Namar+Aage+%282014%29+-+qHDDVDRip+-+x264+-+AC3+-+SAP+%5BDDR%5D","amp;tr":["udp%3A%2F%2Ftracker.leechers-paradise.org%3A6969","udp%3A%2F%2Fzer0day.ch%3A1337","udp%3A%2F%2Fopen.demonii.com%3A1337","udp%3A%2F%2Ftracker.coppersurfer.tk%3A6969","udp%3A%2F%2Fexodus.desync.com%3A6969"],"infoHash":"b12a326944f83ff102d4ed36813ce9da0d6c5f52","infoHashBuffer":{"type":"Buffer","data":[177,42,50,105,68,248,63,241,2,212,237,54,129,60,233,218,13,108,95,82]},"announce":[],"urlList":[]}}